# xmcd
#
# Track frame offsets:
#	150
#	11960
#	23848
#	33983
#	45400
#	57026
#	67453
#	78669
#	90634
#	104133
#	114908
#	129190
#	139391
#	150172
#	161964
#	173139
#	184796
#	197753
#	208389
#	219835
#	232064
#	244313
#	256127
#	267054
#	279882
#	295618
#	308235
#	318054
#	333534
#	344478
#
# Disc length: 4728 seconds
#
# Revision: 0
# Processed by: cddbd v1.5.2PL0 Copyright (c) Steve Scherf et al.
# Submitted via: dBpowerAMP V4.0
#
DISCID=b812761e
DTITLE=Shirley Ellis - The Best Of Shirley Ellis
DYEAR=1900
DGENRE=R&B
TTITLE0=A Beautiful Love
TTITLE1=Love Can Make You Know
TTITLE2=The Nitty Gritty
TTITLE3=That's What The Nitty Gritty Is
TTITLE4=Shy One
TTITLE5=Takin' Care Of Business
TTITLE6=Such A Night
TTITLE7=Bring It On Home To Me
TTITLE8=The Name Game
TTITLE9=Whisper To Me Wind
TTITLE10=The Clapping Song
TTITLE11=This Is Beautiful
TTITLE12=The Puzzle Song
TTITLE13=I See It, I Like It, I Want It
TTITLE14=I Told You So
TTITLE15=I Never Will Forget
TTITLE16=You Better Be Good World
TTITLE17=One Sour Note
TTITLE18=Ever See A Diver Kiss His Wife
TTITLE19=BIrds, Bees, Cupids And Bows
TTITLE20=Truly, Truly, Truly
TTITLE21=Soul Time
TTITLE22=Waitin'
TTITLE23=Sugar, Let's Shing A Ling
TTITLE24=How Lonely Is Lonely
TTITLE25=Back Track
TTITLE26=It Must Be Love
TTITLE27=Yes, I'm Ready
TTITLE28=Music And Memories
TTITLE29=To Be Or Not To Be
EXTD=
EXTT0=
EXTT1=
EXTT2=
EXTT3=
EXTT4=
EXTT5=
EXTT6=
EXTT7=
EXTT8=
EXTT9=
EXTT10=
EXTT11=
EXTT12=
EXTT13=
EXTT14=
EXTT15=
EXTT16=
EXTT17=
EXTT18=
EXTT19=
EXTT20=
EXTT21=
EXTT22=
EXTT23=
EXTT24=
EXTT25=
EXTT26=
EXTT27=
EXTT28=
EXTT29=
PLAYORDER=
